<svg width="404" height="561" viewBox="0 0 404 561" fill="none" xmlns="http://www.w3.org/2000/svg">
<path d="M402.24 143.68C388.099 122.75 368.865 115.399 352.463 112.571C354.725 110.309 355.291 107.481 354.725 104.653C354.158 101.259 351.33 98.4303 347.936 97.2975C334.924 93.3366 323.045 93.3366 313.998 95.0358L315.13 92.7741C316.263 90.5124 316.263 87.1179 315.13 84.8561C313.998 82.5944 311.736 80.3327 308.908 79.7663C297.596 76.9382 285.15 81.4616 274.97 88.2507C274.97 86.5554 273.837 84.2898 272.708 82.5945C270.446 80.3328 267.052 79.2 263.657 79.7664C251.778 82.0281 239.333 91.6454 229.153 101.262V100.696C227.458 98.4343 224.063 97.3015 221.235 97.3015H219.54C218.407 94.4734 216.145 91.6453 212.751 91.0788C209.356 90.5124 205.962 91.6452 203.7 93.9069L199.739 98.4303C196.911 82.5903 192.384 62.7933 186.165 54.8753C184.47 52.6136 181.642 51.4808 178.81 51.4808C175.981 51.4808 173.153 53.1761 171.454 55.4417L165.798 63.3597L154.482 39.6017C152.787 36.7736 149.958 34.5119 146.564 34.5119C142.603 34.5119 139.775 36.2072 138.079 39.0353L134.119 46.3908L97.3486 2.83583C95.0869 0.574129 91.6924 -1.12507 88.8642 -0.558671C85.4697 0.00773854 82.6415 2.26943 81.5087 5.66403L62.8407 57.703L56.0516 52.0468C53.2274 50.3476 49.8368 49.7812 46.4422 50.914C43.0477 52.0468 40.786 55.4374 40.786 58.832L38.5243 84.285L30.0399 78.6288C27.7782 76.9335 24.3837 76.3671 22.1219 77.496C19.2938 78.6288 17.0321 80.3241 16.4657 83.1522C13.0712 92.7694 15.8993 112 19.2938 127.84L13.6336 124.45C10.8055 122.754 6.84449 122.754 4.01639 125.016C1.18829 126.711 0.0593872 130.106 0.0593872 133.5C2.32109 162.348 11.3714 180.449 18.7274 191.195L9.11018 193.457C6.84848 194.024 4.58678 195.719 2.88748 197.981C1.75468 200.242 1.19219 203.07 2.32108 205.336C9.67658 226.832 24.3831 247.762 33.4301 259.074L19.8561 266.43C15.3327 268.691 13.6334 274.348 15.8952 278.875C17.028 282.265 74.1572 349.578 120.545 355.234C122.807 355.234 125.069 355.8 126.768 355.8C130.162 355.8 132.991 355.234 136.385 354.667C136.385 357.495 136.951 360.323 138.08 363.718C138.647 366.546 140.342 371.636 142.041 375.597C144.303 380.12 147.131 384.081 149.959 387.476H48.1393C45.8776 387.476 43.6159 389.171 42.4831 391.437C41.3503 393.699 41.9167 396.527 43.6159 398.226L190.116 558.306C191.249 559.439 192.378 560.001 194.639 560.568C196.335 560.568 198.034 560.001 199.163 558.872L349.623 398.792C351.318 397.097 351.884 394.269 350.755 392.003C349.623 389.742 347.361 388.042 345.099 388.042H199.159C189.542 385.214 180.491 381.82 172.573 376.163C163.522 370.507 157.866 362.022 156.733 349.577C156.733 348.445 156.733 346.749 156.167 345.616C158.995 346.183 161.823 346.749 164.651 346.749C173.702 350.71 187.842 354.105 205.378 354.105C213.863 354.105 223.48 352.972 234.226 351.277C238.75 350.144 241.582 346.187 241.582 341.659L241.015 331.475L294.753 326.386C298.148 325.819 300.976 324.124 302.109 320.729C303.242 317.901 303.242 313.94 300.976 311.679L295.886 304.323L329.261 286.221C332.656 284.526 334.351 280.565 334.351 277.17C333.785 273.209 330.957 270.381 327.562 269.252L325.3 268.686L346.23 252.846C349.058 250.584 350.191 247.19 349.625 243.229C349.058 239.834 346.23 237.006 342.836 236.44C349.058 229.651 356.977 221.733 362.633 216.077C364.894 213.815 365.461 210.987 364.894 208.159C364.328 205.33 362.633 203.069 360.371 201.37C366.027 196.28 372.816 188.925 381.867 178.745C384.129 176.483 384.695 173.088 384.129 170.26C383.562 167.432 381.301 164.604 378.472 164.037L377.34 163.471C382.996 161.209 390.352 159.51 397.137 158.381C399.965 157.815 402.793 155.553 403.926 152.725C403.926 149.334 403.926 145.94 402.23 143.678L402.24 143.68ZM128.46 69.016C130.155 71.2777 133.55 72.4105 136.378 72.4105C139.206 71.8441 142.034 70.1488 143.733 67.8871L145.429 64.4926L156.175 85.9886C157.87 88.8167 160.698 91.0784 163.53 91.0784C166.925 91.0784 169.753 89.9456 172.015 87.1175L177.104 79.762C179.933 91.074 182.761 106.348 184.46 120.489C183.894 120.489 183.327 120.489 183.327 121.055C173.71 127.278 168.054 139.723 164.659 151.035C162.397 148.207 158.436 146.512 155.042 147.641C151.647 148.207 148.819 151.602 148.253 154.996L142.597 185.543C140.901 183.848 138.636 182.715 135.808 182.715C132.979 182.715 130.718 183.848 129.018 186.11C128.452 187.243 127.886 187.805 126.757 188.938C125.624 183.848 124.495 178.754 123.929 173.665C112.617 115.97 101.304 58.8349 95.0807 29.4249L128.46 69.016ZM125.632 337.136C96.2179 336.003 54.3589 295.277 37.9559 277.741L52.0969 270.386C54.3586 269.253 56.6203 266.425 56.6203 263.596C57.1867 260.768 56.0539 257.94 54.3586 255.678C54.3586 255.678 34.5616 233.616 23.2496 209.295L38.5226 205.901C42.4796 204.772 45.3078 201.94 45.8742 197.983C46.4406 194.022 44.7414 190.627 41.3508 188.366C41.3508 188.366 27.2098 179.315 20.9878 149.901L27.7769 153.862C31.1714 155.557 35.1324 155.557 37.9609 153.295C40.7894 151.034 41.9218 147.073 41.3554 143.678C37.9609 130.104 34.5663 114.83 33.4374 103.518L40.7929 108.608C43.621 110.303 47.0156 110.87 49.8437 109.174C52.6718 108.041 54.9335 104.651 54.9335 101.819L57.1952 78.6277L60.5897 81.4558C62.8514 83.7175 66.2459 84.2839 69.0741 83.1511C71.9022 82.5847 74.1639 80.323 75.2968 77.4949L92.2658 30.5459C96.7892 60.5259 104.711 117.655 113.762 175.356C115.457 186.102 116.59 196.286 118.285 207.032C116.023 219.477 118.852 231.923 123.375 241.536H119.98C115.457 242.102 112.062 245.497 111.496 249.454C108.668 274.345 130.164 307.149 138.082 318.466C136.949 324.122 136.387 329.778 135.82 335.435C132.984 336.572 129.594 337.138 125.632 337.138L125.632 337.136ZM348.502 162.916C346.807 167.439 349.068 173.1 354.158 174.795L357.553 175.928C350.197 183.846 342.846 190.635 340.018 192.897C337.756 193.463 335.494 195.159 333.795 197.42C330.967 201.944 332.662 207.037 336.623 209.865C337.756 210.432 338.318 210.998 339.451 211.561H340.018C316.827 235.885 316.827 235.885 316.26 237.581C315.127 240.409 315.127 243.237 316.826 245.499C317.959 247.194 318.521 248.327 320.22 248.893L299.29 265.295C296.462 267.557 295.33 270.951 295.896 274.346C296.462 277.174 298.158 279.436 300.419 280.569L278.357 292.448C276.096 293.58 274.396 295.842 273.834 298.67C273.268 301.498 273.834 304.326 275.529 306.026L277.224 308.854L230.842 313.377C225.752 313.944 222.357 317.901 222.357 322.994L222.924 334.306C182.764 339.963 162.401 324.689 161.268 324.122C160.139 322.994 158.443 322.431 156.744 322.431C157.311 318.47 157.877 314.513 159.006 310.552C164.662 284.532 178.236 259.642 194.076 239.279C209.916 218.916 228.014 201.947 245.553 190.068C262.522 177.623 278.362 169.705 289.674 164.615C295.33 162.353 299.858 160.092 302.686 158.959C306.08 157.826 307.209 157.264 307.209 157.264L306.643 155.002C306.643 155.002 304.947 155.568 301.553 156.697C298.158 157.83 293.635 158.959 287.979 161.221C276.1 165.744 259.698 172.533 241.03 183.283C222.362 194.595 201.999 209.869 183.897 230.799C168.624 248.901 154.483 270.397 145.432 294.717C139.209 283.971 132.42 270.393 130.725 259.647L140.909 259.08C144.304 259.08 147.698 256.818 148.827 253.424C149.96 250.029 149.393 246.635 147.694 243.807C147.694 243.807 132.421 225.139 138.077 207.037L142.038 210.998C144.3 213.826 148.261 214.392 151.655 213.826C155.05 212.693 157.311 209.865 158.444 206.47L163.534 178.751C165.796 181.579 169.757 182.712 173.151 181.579C176.546 180.447 179.374 177.618 179.94 173.661C180.507 169.138 181.636 163.477 183.335 157.821C184.468 158.954 186.729 160.083 188.425 160.083C192.948 160.649 197.475 157.255 198.609 152.728C199.741 147.071 202.569 139.154 206.527 131.798C206.527 135.192 208.788 138.02 211.616 139.716C215.577 141.977 220.667 140.282 223.495 136.887C229.718 128.403 240.464 115.957 251.214 107.473L248.953 113.696C247.257 117.657 249.519 122.747 252.914 125.008C256.875 127.27 261.964 126.141 264.793 122.746C270.449 115.957 281.762 105.211 291.945 100.121L287.413 107.481C285.718 111.442 286.281 115.965 289.675 118.793C293.07 121.621 297.593 121.621 300.987 119.359C300.987 119.359 308.343 114.269 320.784 113.137L318.522 114.832C315.128 117.66 313.999 122.187 315.694 126.144C317.39 130.105 321.917 132.367 325.878 131.234C327.011 131.234 355.858 125.577 376.788 143.113C365.476 146.507 351.897 152.73 348.503 162.914L348.502 162.916Z" fill="black"/>
</svg>
